<?xml version="1.0" encoding="utf-8"?>
<!DOCTYPE svg PUBLIC "-//W3C//DTD SVG 1.1//EN" "http://www.w3.org/Graphics/SVG/1.1/DTD/svg11.dtd">
<svg version="1.1" id="Layer_1" xmlns="http://www.w3.org/2000/svg" xmlns:xlink="http://www.w3.org/1999/xlink" x="0px" y="0px"
	 width="25px" height="25px" viewBox="0 0 25 25" enable-background="new 0 0 25 25" xml:space="preserve">
<g>
	<path d="M17.327,10.563c0.58-1.078,0.386-1.984-0.566-2.785c-1.022-0.86-2.259-1.266-3.515-1.623
		c-1.329-0.377-2.659-0.75-3.992-1.114C9.098,4.999,8.913,4.985,8.759,5.025c-1.147,0.3-1.676,1.689-0.908,2.587
		C8.228,8.053,8.814,8.415,9.374,8.58c0.954,0.28,1.96,0.39,2.947,0.547C14.037,9.399,15.83,9.385,17.327,10.563z M12.82,0
		c-1.295,0.446-2.458,0.956-3.302,1.979c-0.865,1.047-0.627,2.195,0.58,2.805c0.432,0.218,0.905,0.369,1.373,0.502
		c1.67,0.472,3.439,0.631,4.926,1.611c0.62-0.705,0.715-1.339,0.071-2.026c-0.613-0.654-1.369-1.204-2.138-1.676
		C12.938,2.339,12.556,1.666,12.82,0z M12.664,12.32c1.322,0,2.645-0.013,3.967,0.007c0.431,0.006,0.557-0.177,0.552-0.571
		c-0.01-0.792-0.504-1.253-1.162-1.431c-1.143-0.309-2.314-0.541-3.486-0.716c-1.408-0.21-2.837-0.278-4.164-0.884
		C8.242,8.665,7.936,8.79,7.828,8.923c-0.672,0.827-0.645,1.963,0.104,2.949c0.173,0.228,0.543,0.419,0.829,0.429
		C10.061,12.346,11.363,12.32,12.664,12.32z M13.554,22.766c-0.331-0.213-0.594-0.516-0.866-0.525
		c-0.352-0.011-0.725,0.185-1.058,0.354c-0.105,0.053-0.187,0.333-0.144,0.464c0.184,0.566,0.408,1.12,0.642,1.668
		c0.051,0.119,0.213,0.284,0.301,0.271c0.134-0.02,0.304-0.152,0.359-0.28C13.053,24.094,13.287,23.455,13.554,22.766z
		 M14.086,13.503c-1.365-1.225-1.927-1.224-3.276,0.001c0.5,0.312,0.976,0.619,1.466,0.903c0.088,0.051,0.257,0.051,0.345,0
		C13.109,14.122,13.585,13.815,14.086,13.503z M12.199,14.655c-0.546-0.345-1.005-0.645-1.476-0.924
		c-0.093-0.055-0.263-0.083-0.347-0.035c-0.508,0.291-1.002,0.607-1.524,0.929c1.46,1.219,1.549,1.225,2.995,0.279
		C11.935,14.847,12.018,14.784,12.199,14.655z M16.101,14.671c-0.584-0.368-1.041-0.671-1.515-0.944
		c-0.103-0.059-0.299-0.058-0.403,0.002c-0.488,0.279-0.959,0.588-1.517,0.938c0.558,0.347,0.998,0.643,1.462,0.893
		c0.135,0.073,0.374,0.074,0.509,0.002C15.1,15.313,15.54,15.018,16.101,14.671z M10.826,15.822c1.23,1.214,2.259,1.2,3.21-0.028
		c-0.433-0.271-0.855-0.556-1.3-0.798c-0.14-0.076-0.381-0.107-0.51-0.038C11.749,15.216,11.298,15.525,10.826,15.822z
		 M10.756,18.311c0.541,0.34,0.999,0.642,1.474,0.914c0.106,0.061,0.302,0.074,0.404,0.016c0.493-0.28,0.967-0.591,1.469-0.905
		c-1.429-1.214-1.546-1.224-2.983-0.285C11.032,18.109,10.949,18.173,10.756,18.311z M14.106,20.753
		c-1.515-1.23-2.158-1.217-3.265,0.034c0.454,0.283,0.892,0.581,1.356,0.831c0.135,0.072,0.376,0.067,0.512-0.006
		C13.173,21.361,13.61,21.063,14.106,20.753z M12.673,17.082c0.405,0.257,0.729,0.419,1,0.645c0.479,0.4,0.885,0.391,1.408,0.02
		c0.893-0.634,0.923-0.743-0.035-1.316c-0.251-0.15-0.621-0.358-0.829-0.274C13.698,16.366,13.241,16.727,12.673,17.082z
		 M12.214,17.087c-0.32-0.205-0.558-0.313-0.739-0.481c-0.685-0.639-1.303-0.519-2,0.026c-0.424,0.332-0.381,0.558-0.044,0.847
		c0.824,0.707,1.02,0.718,1.928,0.149C11.61,17.472,11.86,17.312,12.214,17.087z M14.663,13.484
		c0.484,0.307,0.923,0.558,1.331,0.851c0.39,0.28,0.692,0.078,0.854-0.209c0.254-0.449,0.401-0.959,0.6-1.462
		C16.321,12.335,15.507,12.763,14.663,13.484z M7.456,12.667c0.189,0.485,0.315,0.963,0.559,1.371c0.119,0.2,0.527,0.436,0.68,0.37
		c0.531-0.23,1.007-0.586,1.558-0.928C9.392,12.808,8.602,12.308,7.456,12.667z M14.385,20.58c0.212-0.533,0.401-0.961,0.553-1.402
		c0.121-0.351-0.321-0.821-0.647-0.66c-0.537,0.266-1.03,0.62-1.626,0.989C13.306,19.906,13.808,20.22,14.385,20.58z M12.218,19.507
		c-0.579-0.364-1.027-0.686-1.514-0.928c-0.149-0.074-0.431,0.032-0.607,0.134c-0.098,0.057-0.175,0.3-0.135,0.417
		c0.157,0.469,0.363,0.922,0.575,1.439C11.111,20.206,11.607,19.892,12.218,19.507z M9.008,16.676
		c0.452-0.287,0.823-0.523,1.294-0.822c-0.69-0.4-1.248-0.722-1.806-1.045c-0.05,0.056-0.1,0.113-0.15,0.169
		C8.556,15.514,8.765,16.05,9.008,16.676z M16.557,14.962c-0.07-0.058-0.14-0.115-0.211-0.173c-0.545,0.34-1.091,0.679-1.739,1.083
		c0.466,0.293,0.846,0.532,1.288,0.809C16.143,16.036,16.35,15.499,16.557,14.962z M13.645,22.539
		c0.193-0.526,0.352-0.959,0.511-1.393c-0.039-0.026-0.078-0.051-0.117-0.077c-0.419,0.264-0.838,0.527-1.355,0.853
		C13.03,22.145,13.287,22.31,13.645,22.539z M12.225,21.926c-0.494-0.307-0.901-0.56-1.308-0.813
		c-0.048,0.036-0.096,0.072-0.145,0.109c0.16,0.412,0.321,0.824,0.502,1.289C11.592,22.315,11.841,22.162,12.225,21.926z
		 M9.612,12.612c0.712,0.804,1.154,0.798,1.769,0C10.792,12.612,10.224,12.612,9.612,12.612z M15.292,12.624
		c-0.643,0-1.211,0-1.841,0C14.286,13.414,14.532,13.412,15.292,12.624z"/>
	<path fill="#FFFFFF" d="M17.327,10.563c-1.497-1.178-3.29-1.164-5.006-1.437C11.333,8.97,10.327,8.86,9.374,8.58
		c-0.56-0.165-1.146-0.527-1.523-0.968C7.083,6.714,7.612,5.325,8.759,5.025c0.154-0.04,0.339-0.026,0.495,0.017
		c1.333,0.364,2.663,0.736,3.992,1.114c1.256,0.357,2.493,0.763,3.515,1.623C17.714,8.579,17.907,9.485,17.327,10.563z"/>
	<path fill="#FFFFFF" d="M12.82,0c-0.264,1.666,0.118,2.339,1.51,3.194c0.769,0.472,1.525,1.021,2.138,1.676
		c0.643,0.687,0.549,1.322-0.071,2.026c-1.487-0.98-3.256-1.139-4.926-1.611c-0.468-0.132-0.941-0.283-1.373-0.502
		c-1.206-0.609-1.444-1.758-0.58-2.805C10.363,0.956,11.526,0.446,12.82,0z"/>
	<path fill="#FFFFFF" d="M12.664,12.32c-1.301,0-2.603,0.026-3.902-0.02c-0.286-0.01-0.656-0.201-0.829-0.429
		c-0.75-0.986-0.777-2.122-0.104-2.949C7.936,8.79,8.242,8.665,8.371,8.724c1.326,0.606,2.756,0.674,4.164,0.884
		c1.172,0.175,2.343,0.407,3.486,0.716c0.658,0.178,1.151,0.64,1.162,1.431c0.005,0.395-0.121,0.578-0.552,0.571
		C15.309,12.307,13.986,12.32,12.664,12.32z"/>
	<path fill="#FFFFFF" d="M13.554,22.766c-0.267,0.689-0.5,1.328-0.767,1.953c-0.054,0.128-0.225,0.26-0.359,0.28
		c-0.087,0.013-0.25-0.152-0.301-0.271c-0.234-0.548-0.458-1.102-0.642-1.668c-0.043-0.132,0.039-0.411,0.144-0.464
		c0.333-0.169,0.706-0.365,1.058-0.354C12.96,22.25,13.223,22.553,13.554,22.766z"/>
	<path fill="#FFFFFF" d="M14.086,13.503c-0.5,0.312-0.977,0.62-1.466,0.904c-0.088,0.051-0.257,0.051-0.345,0
		c-0.49-0.284-0.966-0.592-1.466-0.903C12.158,12.278,12.721,12.278,14.086,13.503z"/>
	<path fill="#FFFFFF" d="M12.199,14.655c-0.181,0.129-0.264,0.192-0.351,0.249c-1.447,0.946-1.536,0.94-2.995-0.279
		c0.523-0.323,1.016-0.639,1.524-0.929c0.084-0.048,0.254-0.02,0.347,0.035C11.194,14.01,11.652,14.31,12.199,14.655z"/>
	<path fill="#FFFFFF" d="M16.101,14.671c-0.561,0.347-1.001,0.642-1.465,0.891c-0.135,0.072-0.374,0.07-0.509-0.002
		c-0.464-0.25-0.904-0.546-1.462-0.893c0.558-0.349,1.029-0.659,1.517-0.938c0.104-0.06,0.3-0.061,0.403-0.002
		C15.06,13.999,15.517,14.303,16.101,14.671z"/>
	<path fill="#FFFFFF" d="M10.826,15.822c0.472-0.297,0.923-0.606,1.401-0.865c0.129-0.07,0.37-0.038,0.51,0.038
		c0.445,0.242,0.866,0.528,1.3,0.798C13.085,17.022,12.056,17.036,10.826,15.822z"/>
	<path fill="#FFFFFF" d="M10.756,18.311c0.193-0.138,0.276-0.202,0.363-0.259c1.437-0.939,1.555-0.93,2.983,0.285
		c-0.502,0.313-0.976,0.625-1.469,0.905c-0.102,0.058-0.298,0.045-0.404-0.016C11.755,18.953,11.298,18.651,10.756,18.311z"/>
	<path fill="#FFFFFF" d="M14.106,20.753c-0.496,0.31-0.934,0.608-1.396,0.859c-0.136,0.074-0.378,0.079-0.512,0.006
		c-0.464-0.25-0.902-0.548-1.356-0.831C11.949,19.536,12.592,19.522,14.106,20.753z"/>
	<path fill="#FFFFFF" d="M12.673,17.082c0.568-0.355,1.025-0.716,1.543-0.925c0.208-0.084,0.578,0.124,0.829,0.274
		c0.959,0.573,0.928,0.683,0.035,1.316c-0.523,0.371-0.928,0.38-1.408-0.02C13.402,17.501,13.078,17.339,12.673,17.082z"/>
	<path fill="#FFFFFF" d="M12.214,17.087c-0.354,0.225-0.603,0.384-0.854,0.542c-0.908,0.569-1.104,0.558-1.928-0.149
		c-0.337-0.289-0.38-0.515,0.044-0.847c0.696-0.545,1.315-0.665,2-0.026C11.656,16.774,11.893,16.882,12.214,17.087z"/>
	<path fill="#FFFFFF" d="M14.663,13.484c0.844-0.721,1.658-1.149,2.786-0.82c-0.199,0.503-0.346,1.013-0.6,1.462
		c-0.162,0.287-0.465,0.489-0.854,0.209C15.586,14.041,15.147,13.79,14.663,13.484z"/>
	<path fill="#FFFFFF" d="M7.456,12.667c1.146-0.359,1.936,0.141,2.797,0.812c-0.551,0.342-1.027,0.698-1.558,0.928
		c-0.153,0.066-0.561-0.17-0.68-0.37C7.771,13.63,7.645,13.152,7.456,12.667z"/>
	<path fill="#FFFFFF" d="M14.385,20.58c-0.577-0.36-1.08-0.674-1.72-1.074c0.596-0.369,1.089-0.723,1.626-0.989
		c0.326-0.161,0.768,0.309,0.647,0.66C14.786,19.619,14.597,20.047,14.385,20.58z"/>
	<path fill="#FFFFFF" d="M12.218,19.507c-0.61,0.385-1.107,0.699-1.681,1.062c-0.212-0.517-0.418-0.97-0.575-1.439
		c-0.039-0.117,0.038-0.36,0.135-0.417c0.176-0.102,0.458-0.208,0.607-0.134C11.191,18.821,11.639,19.143,12.218,19.507z"/>
	<path fill="#FFFFFF" d="M9.008,16.676c-0.244-0.625-0.452-1.162-0.661-1.698c0.05-0.056,0.1-0.113,0.15-0.169
		c0.558,0.323,1.115,0.645,1.806,1.045C9.832,16.153,9.46,16.389,9.008,16.676z"/>
	<path fill="#FFFFFF" d="M16.557,14.962c-0.207,0.537-0.413,1.074-0.662,1.719c-0.442-0.278-0.822-0.516-1.288-0.809
		c0.649-0.404,1.194-0.743,1.739-1.083C16.416,14.846,16.486,14.904,16.557,14.962z"/>
	<path fill="#FFFFFF" d="M13.645,22.539c-0.358-0.229-0.615-0.394-0.961-0.616c0.518-0.326,0.937-0.59,1.355-0.853
		c0.039,0.026,0.078,0.051,0.117,0.077C13.997,21.58,13.838,22.014,13.645,22.539z"/>
	<path fill="#FFFFFF" d="M12.225,21.926c-0.384,0.236-0.633,0.389-0.951,0.584c-0.181-0.465-0.341-0.877-0.502-1.289
		c0.048-0.036,0.096-0.072,0.145-0.109C11.324,21.366,11.731,21.619,12.225,21.926z"/>
	<path fill="#FFFFFF" d="M9.612,12.612c0.611,0,1.18,0,1.769,0C10.766,13.411,10.325,13.417,9.612,12.612z"/>
	<path fill="#FFFFFF" d="M15.292,12.624c-0.76,0.788-1.006,0.79-1.841,0C14.082,12.624,14.649,12.624,15.292,12.624z"/>
</g>
</svg>
