<?xml version="1.0" encoding="utf-8"?>
<!DOCTYPE svg PUBLIC "-//W3C//DTD SVG 1.1//EN" "http://www.w3.org/Graphics/SVG/1.1/DTD/svg11.dtd">
<svg version="1.1" id="Layer_1" xmlns="http://www.w3.org/2000/svg" xmlns:xlink="http://www.w3.org/1999/xlink" x="0px" y="0px"
	 width="25px" height="25px" viewBox="0 0 25 25" enable-background="new 0 0 25 25" xml:space="preserve">
<g>
	<path fill="#FFFFFF" d="M16.946,8.628c-0.131,1.44-0.251,2.781-0.377,4.122c-0.208,2.22-0.421,4.439-0.628,6.658
		c-0.16,1.716-0.316,3.433-0.468,5.15c-0.027,0.301-0.162,0.419-0.468,0.419c-2.815,0-5.629,0.004-8.444,0.023
		c-0.39,0.003-0.415-0.23-0.433-0.503c-0.082-1.235-0.161-2.469-0.244-3.704c-0.216-3.217-0.435-6.433-0.652-9.65
		C5.188,10.488,5.16,9.832,5.097,9.179c-0.04-0.416,0.1-0.564,0.528-0.559c1.595,0.019,3.19-0.003,4.785,0.015
		c0.353,0.004,0.525-0.112,0.67-0.436c1.061-2.377,2.151-4.741,3.212-7.117c0.139-0.311,0.307-0.463,0.648-0.503
		C16.479,0.401,18.018,0.2,19.614,0c0.1,0.437,0.189,0.828,0.296,1.295c-0.728,0.092-1.404,0.183-2.082,0.263
		c-0.707,0.084-1.417,0.142-2.12,0.247c-0.166,0.025-0.391,0.154-0.452,0.295c-0.908,2.095-1.793,4.201-2.681,6.304
		c-0.02,0.048-0.012,0.109-0.022,0.224C13.998,8.628,15.432,8.628,16.946,8.628z M5.783,9.289c0.046,0.698,0.09,1.383,0.135,2.069
		c0.09,1.365,0.188,2.73,0.265,4.096c0.023,0.406,0.197,0.601,0.601,0.658c1.01,0.143,1.692-0.377,2.233-1.118
		c0.787-1.076,1.359-1.28,2.594-0.829c0.765,0.279,1.356-0.003,1.441-0.8c0.059-0.553,0.337-0.834,0.763-1.075
		c0.665-0.378,1.34-0.684,2.159-0.363c0.084-0.889,0.164-1.738,0.249-2.639C12.741,9.289,9.3,9.289,5.783,9.289z"/>
</g>
</svg>
