<?xml version="1.0" encoding="utf-8"?>
<!DOCTYPE svg PUBLIC "-//W3C//DTD SVG 1.1//EN" "http://www.w3.org/Graphics/SVG/1.1/DTD/svg11.dtd">
<svg version="1.1" id="Layer_1" xmlns="http://www.w3.org/2000/svg" xmlns:xlink="http://www.w3.org/1999/xlink" x="0px" y="0px"
	 width="25px" height="25px" viewBox="0 0 25 25" enable-background="new 0 0 25 25" xml:space="preserve">
<g>
	<path fill="#FFFFFF" d="M2.079,18.557c-0.15-0.901-0.02-1.805,0.176-2.687c0.974-4.385,4.243-7.466,8.673-8.212
		c0.069-0.012,0.144-0.002,0.208-0.024c0.254-0.09,0.71-0.172,0.721-0.289c0.037-0.425,0.223-0.893-0.312-1.258
		c-0.75-0.511-0.813-1.55-0.234-2.229c0.577-0.676,1.596-0.743,2.257-0.147c0.66,0.595,0.758,1.704,0.054,2.23
		c-0.606,0.452-0.565,0.953-0.501,1.574c0.614,0.109,1.234,0.193,1.842,0.33c4.162,0.939,7.399,4.514,7.919,8.747
		c0.066,0.537,0.066,1.082,0.102,1.624c0.019,0.288-0.094,0.405-0.393,0.405C15.82,18.613,9.05,18.612,2.279,18.608
		C2.229,18.608,2.178,18.583,2.079,18.557z M20.429,15.723c-0.007-0.122-0.009-0.245-0.023-0.367
		c-0.01-0.086-0.036-0.171-0.054-0.256c-0.618-2.913-2.579-4.576-5.22-5.604c-0.096-0.037-0.205-0.056-0.308-0.056
		c-0.308-0.001-0.446,0.241-0.26,0.489c0.097,0.128,0.272,0.2,0.418,0.287c0.822,0.494,1.688,0.928,2.457,1.492
		c1.078,0.791,1.898,1.812,2.215,3.155c0.084,0.355,0.069,0.734,0.164,1.085c0.043,0.161,0.24,0.281,0.367,0.42
		c0.085-0.145,0.18-0.286,0.251-0.438C20.462,15.874,20.433,15.793,20.429,15.723z"/>
	<path fill="#FFFFFF" d="M12.702,20.263c3.823,0,7.646,0,11.47,0c0.593,0,0.813,0.182,0.827,0.678
		c0.014,0.49-0.268,0.752-0.857,0.753c-7.752,0.003-15.503,0.003-23.255,0c-0.546,0-0.873-0.268-0.887-0.688
		c-0.013-0.396,0.339-0.701,0.864-0.738c0.175-0.012,0.351-0.005,0.526-0.006C5.161,20.263,8.932,20.263,12.702,20.263z"/>
</g>
</svg>
