<?xml version="1.0" encoding="utf-8"?>
<!DOCTYPE svg PUBLIC "-//W3C//DTD SVG 1.1//EN" "http://www.w3.org/Graphics/SVG/1.1/DTD/svg11.dtd">
<svg version="1.1" id="Layer_1" xmlns="http://www.w3.org/2000/svg" xmlns:xlink="http://www.w3.org/1999/xlink" x="0px" y="0px"
	 width="25px" height="25px" viewBox="0 0 25 25" enable-background="new 0 0 25 25" xml:space="preserve">
<g>
	<path fill="#FFFFFF" d="M18.926,12.099c0.533,2.251-0.463,6.297-4.17,8.28c-3.457,1.849-7.717,0.972-10.193-2.107
		C2.154,15.277,2.2,10.934,4.666,7.986c2.525-3.018,6.682-3.672,9.72-2.119c-0.559,1.201-1.119,2.405-1.68,3.608
		c-0.556,1.191-1.113,2.381-1.712,3.663C13.686,12.786,16.289,12.445,18.926,12.099z M5.71,10.479
		c-0.797-0.001-1.431,0.613-1.448,1.401c-0.016,0.784,0.664,1.479,1.449,1.48c0.773,0.001,1.424-0.647,1.433-1.428
		C7.154,11.101,6.541,10.479,5.71,10.479z M10.667,18.909c0.808,0.006,1.478-0.654,1.468-1.446
		c-0.009-0.771-0.666-1.428-1.438-1.437c-0.784-0.01-1.429,0.619-1.443,1.406C9.24,18.271,9.845,18.904,10.667,18.909z
		 M11.128,8.471c-0.009-0.801-0.63-1.42-1.423-1.419c-0.797,0.001-1.471,0.684-1.451,1.47c0.02,0.782,0.665,1.41,1.45,1.411
		C10.525,9.935,11.137,9.306,11.128,8.471z M7.568,15.929c0.002-0.542-0.415-0.959-0.948-0.949c-0.515,0.01-0.909,0.413-0.911,0.933
		c-0.003,0.559,0.389,0.946,0.948,0.938C7.191,16.842,7.566,16.463,7.568,15.929z M16.029,15.27
		c0.009-0.542-0.353-0.932-0.883-0.951c-0.554-0.019-0.971,0.37-0.98,0.914c-0.008,0.515,0.384,0.938,0.89,0.959
		C15.597,16.215,16.02,15.813,16.029,15.27z"/>
	<path fill="#FFFFFF" d="M20.374,11.918c0.464-0.066,0.87-0.123,1.269-0.179c1.269,2.712-1.235,8.285-4.73,10.585
		c-4.544,2.991-10.591,2.172-14.191-1.921c-3.593-4.085-3.637-10.17-0.08-14.323C6.258,1.86,11.938,1.46,15.56,3.359
		c-0.178,0.383-0.357,0.77-0.551,1.188c-3.347-1.371-6.547-1.205-9.534,0.847c-2.146,1.474-3.479,3.539-3.917,6.106
		c-0.995,5.833,3.153,10.552,8.227,11.15c1.447,0.171,2.879,0.038,4.263-0.455c1.381-0.491,2.593-1.249,3.628-2.288
		c1.036-1.039,1.786-2.256,2.268-3.64C20.427,14.883,20.516,13.454,20.374,11.918z"/>
	<path fill="#FFFFFF" d="M14.158,10.767c1.198-2.562,2.328-4.977,3.484-7.448c2.626,1.333,4.147,3.404,4.677,6.365
		C19.623,10.042,16.959,10.395,14.158,10.767z M19.933,8.349c0.002-0.513-0.452-0.967-0.96-0.96
		c-0.509,0.007-0.949,0.468-0.937,0.98c0.011,0.492,0.441,0.921,0.932,0.93C19.48,9.309,19.931,8.865,19.933,8.349z"/>
	<path fill="#FFFFFF" d="M18.234,2.069c0.196-0.423,0.374-0.809,0.55-1.188c2.729,0.633,6.272,5.429,6.216,8.44
		c-0.41,0.055-0.83,0.112-1.309,0.176c-0.265-1.635-0.829-3.107-1.791-4.412C20.944,3.79,19.731,2.802,18.234,2.069z"/>
</g>
</svg>
