<?xml version="1.0" encoding="utf-8"?>
<!DOCTYPE svg PUBLIC "-//W3C//DTD SVG 1.1//EN" "http://www.w3.org/Graphics/SVG/1.1/DTD/svg11.dtd">
<svg version="1.1" id="Layer_1" xmlns="http://www.w3.org/2000/svg" xmlns:xlink="http://www.w3.org/1999/xlink" x="0px" y="0px"
	 width="25px" height="25px" viewBox="0 0 25 25" enable-background="new 0 0 25 25" xml:space="preserve">
<g>
	<path fill="#FFFFFF" d="M14.912,0c1.237,1.584,1.273,2.615,0.223,4.188c-0.056,0.083-0.115,0.164-0.172,0.246
		c-1.282,1.863-1.239,2.337,0.351,3.912c1.363,1.351,1.592,2.348,1.086,4.91c2.571,0,5.126,0,7.729,0
		c0.156,1.183-0.131,2.213-0.481,3.218c-0.828,2.377-2.359,4.211-4.47,5.558c-0.275,0.176-0.648,0.276-0.977,0.278
		c-3.802,0.019-7.604,0.015-11.405,0.005c-0.265-0.001-0.576-0.025-0.787-0.16c-3.061-1.965-4.944-4.669-5.181-8.383
		c-0.008-0.123,0.012-0.247,0.024-0.459c0.27-0.012,0.534-0.034,0.799-0.035c2.201-0.003,4.402-0.024,6.603,0.014
		c0.556,0.01,0.741-0.22,0.845-0.693c0.304-1.393,0.125-2.631-1.049-3.592C7.839,8.834,7.654,8.626,7.47,8.422
		C6.495,7.346,6.356,6.434,7.016,5.135C7.264,4.647,7.624,4.217,7.88,3.734c0.219-0.413,0.444-2.085,0.522-2.537 M13.231,13.273
		c0.609,0,1.205,0.028,1.796-0.018c0.161-0.012,0.387-0.217,0.444-0.382c0.4-1.163,0.476-2.846-0.782-3.846
		c-0.194-0.154-0.359-0.347-0.532-0.527c-1.207-1.251-1.343-2.264-0.479-3.78c0.284-0.498,0.644-0.951,0.927-1.45
		c0.524-0.923,0.474-1.552-0.123-2.192c-0.787-0.844-1.198-0.785-2.462-0.54c0.927,1.374,0.607,2.706-0.26,3.945
		c-1.381,1.974-1.345,2.364,0.401,4.058c0.844,0.819,1.262,1.778,1.217,2.94C13.354,12.027,13.289,12.57,13.231,13.273z
		 M9.155,1.042c0.364,1.406,0.236,2.143-0.572,3.321C7.107,6.518,7.126,6.779,9.01,8.653c0.609,0.605,1.019,1.303,1.066,2.16
		c0.044,0.801,0.009,1.607,0.009,2.462c0.49,0,1.065,0.038,1.631-0.021c0.199-0.021,0.492-0.249,0.54-0.435
		c0.348-1.365,0.365-2.675-0.837-3.703c-0.246-0.21-0.466-0.452-0.686-0.691c-0.994-1.079-1.129-1.955-0.471-3.274
		C10.474,4.73,10.76,4.347,11,3.939c0.201-0.342,0.437-0.677,0.568-1.046c0.454-1.284-0.308-2.226-1.636-1.964"/>
	<path fill="#FFFFFF" d="M18.288,23.311c0,0.591,0,1.109,0,1.689c-3.782,0-7.542,0-11.307,0c-0.035-0.083-0.085-0.149-0.087-0.217
		c-0.055-1.871-0.119-1.502,1.402-1.514c3.003-0.023,6.006-0.008,9.009-0.005C17.623,23.265,17.941,23.294,18.288,23.311z"/>
</g>
</svg>
