<?xml version="1.0" encoding="utf-8"?>
<!DOCTYPE svg PUBLIC "-//W3C//DTD SVG 1.1//EN" "http://www.w3.org/Graphics/SVG/1.1/DTD/svg11.dtd">
<svg version="1.1" id="Layer_1" xmlns="http://www.w3.org/2000/svg" xmlns:xlink="http://www.w3.org/1999/xlink" x="0px" y="0px"
	 width="50px" height="25px" viewBox="0 0 50 25" enable-background="new 0 0 50 25" xml:space="preserve">
<g>
	<path fill="#293990" d="M4.55,18.659c5.289-2.059,5.947-4.146,8.606-8.034s4.003-3.002,4.717-2.373
		c0.686,0.629,2.459,1.687,3.717,2.23c1.058,0.457,2.059,2.316,0.4,3.917c-1.658,1.601-3.116,3.66-9.349,6.204
		s-8.463,1.715-9.95,1.287s-2.059-1.801-0.572-2.316C3.606,19.031,4.55,18.659,4.55,18.659z"/>
	<path fill="#293990" d="M25.707,2.677L25.707,2.677c-0.829-0.229-2.03,0.457-2.716,1.115c-0.172,0.143-0.314,0.314-0.457,0.457
		c-0.486,0.515-0.915,1.086-1.287,1.687l-0.114,0.2c-0.086,0.143-0.229,0.257-0.4,0.314c-0.286,0.086-0.686,0.2-1.201,0.686
		c-0.029,0.029-0.257,0.229-0.257,0.257c-0.086,0.114-0.286,0.343-0.743,0.372c-0.572,0.057-0.257-0.658-0.515-0.572
		s-0.172,0.858,0.229,1.115c0.057,0.057,0.143,0.114,0.257,0.172c0.886,0.343,1.801,0.086,1.801,0.086l0.086-0.029L20.36,8.624
		c0,0.029-0.172,0.772,0.629,1.315c0.486,0.286,0.829,0.515,1.029,0.486c0.257-0.057,0.743-0.658,0.4-0.658
		c-0.286,0.029-0.572,0.286-0.858-0.029c-0.314-0.343,0.915-1.687,0.457-2.459c-0.172-0.286-0.143-0.515,0-0.772
		c0.114-0.229,0.229-0.572,0.515-1.001c0.715-1.172,0.858-1.487,1.715-2.001c0.4-0.257,0.629-0.314,0.801-0.314
		c0,0.029,0,0.029,0,0.057c0,0.314,0.257,0.6,0.6,0.6s0.6-0.257,0.6-0.6C26.221,2.963,25.993,2.705,25.707,2.677z"/>
	<path fill="#293990" d="M20.275,8.681c-0.2,0.057-0.801,0.143-1.458,0c0.543,0.343,1.287,0.801,1.773,1.058
		c0,0,0.029,0,0.029,0.029C20.246,9.31,20.246,8.852,20.275,8.681z"/>
</g>
<g>
	<path fill="#293990" d="M32.859,18.936h-1.705v-3.545h-3.48v3.545h-1.711v-8.532h1.711v3.668h3.48v-3.668h1.705V18.936z"/>
	<path fill="#293990" d="M41.32,15.438c0,1.047-0.331,1.912-0.993,2.596s-1.522,1.025-2.581,1.025c-1.051,0-1.904-0.342-2.561-1.025
		s-0.984-1.549-0.984-2.596v-1.535c0-1.043,0.327-1.908,0.981-2.593s1.507-1.028,2.558-1.028c1.059,0,1.92,0.343,2.584,1.028
		s0.996,1.55,0.996,2.593V15.438z M39.609,13.895c0-0.665-0.166-1.211-0.498-1.638c-0.332-0.427-0.789-0.64-1.371-0.64
		s-1.033,0.212-1.354,0.637c-0.32,0.424-0.48,0.972-0.48,1.641v1.55c0,0.678,0.162,1.229,0.486,1.656s0.775,0.64,1.354,0.64
		c0.586,0,1.043-0.213,1.371-0.64s0.492-0.979,0.492-1.656V13.895z"/>
	<path fill="#293990" d="M48.369,11.722h-2.414v7.213h-1.711v-7.213h-2.402v-1.318h6.527V11.722z"/>
</g>
</svg>
