<?xml version="1.0" encoding="utf-8"?>
<!DOCTYPE svg PUBLIC "-//W3C//DTD SVG 1.1//EN" "http://www.w3.org/Graphics/SVG/1.1/DTD/svg11.dtd">
<svg version="1.1" id="Layer_1" xmlns="http://www.w3.org/2000/svg" xmlns:xlink="http://www.w3.org/1999/xlink" x="0px" y="0px"
	 width="25px" height="25px" viewBox="0 0 25 25" enable-background="new 0 0 25 25" xml:space="preserve">
<path fill="#FFFFFF" d="M6.312,8.867c0.519,0,1.011,0.112,1.457,0.311c0.085-0.717,0.688-1.275,1.428-1.275
	c0.451,0,0.849,0.211,1.114,0.536c0.593-0.657,1.45-1.072,2.406-1.072c0.944,0,1.79,0.406,2.383,1.049
	c0.143-0.33,0.47-0.561,0.853-0.561c0.137,0,0.268,0.032,0.387,0.087l-0.315-6.189c1.521-0.018,3.063,0.411,4.416,1.332
	c1.291,0.879,2.23,2.081,2.784,3.424l-6.352,2.215c0.002,0.019,0.006,0.038,0.006,0.058c0,0.045-0.007,0.088-0.012,0.131
	c0.154-0.028,0.313-0.044,0.476-0.044c0.876,0,1.651,0.425,2.136,1.079c0.065-0.004,0.129-0.01,0.195-0.01
	c1.464,0,2.691,1.003,3.041,2.359H2.733C2.817,10.388,4.385,8.867,6.312,8.867z M25,14.722c0,0.561-0.459,1.018-1.019,1.018h-1.306
	c-0.626,3.261-2.574,5.995-5.221,7.508H7.922c-2.646-1.513-4.595-4.247-5.221-7.508H1.019C0.458,15.74,0,15.282,0,14.722v-0.589
	c0-0.561,0.458-1.019,1.019-1.019h22.963c0.56,0,1.019,0.459,1.019,1.019V14.722z"/>
</svg>
