<?xml version="1.0" encoding="utf-8"?>
<!DOCTYPE svg PUBLIC "-//W3C//DTD SVG 1.1//EN" "http://www.w3.org/Graphics/SVG/1.1/DTD/svg11.dtd">
<svg version="1.1" id="Layer_1" xmlns="http://www.w3.org/2000/svg" xmlns:xlink="http://www.w3.org/1999/xlink" x="0px" y="0px"
	 width="50px" height="25px" viewBox="0 0 50 25" enable-background="new 0 0 50 25" xml:space="preserve">
<g>
	<g>
		<path fill="#293990" d="M29.482,15.213l0.105,0.463h0.035l0.1-0.451L31.58,8.95h1.805l-2.9,8.531h-1.758L25.832,8.95h1.805
			L29.482,15.213z"/>
		<path fill="#293990" d="M39.467,13.73h-3.533v2.432h4.131v1.318h-5.842V8.95h5.83v1.318h-4.119v2.145h3.533V13.73z"/>
		<path fill="#293990" d="M47.664,16.314c-0.254,0.336-0.649,0.635-1.187,0.896s-1.216,0.393-2.036,0.393
			c-1.043,0-1.895-0.324-2.555-0.973s-0.99-1.49-0.99-2.525v-1.781c0-1.031,0.317-1.872,0.952-2.522s1.452-0.976,2.452-0.976
			c1.039,0,1.835,0.253,2.388,0.759s0.835,1.171,0.847,1.995l-0.012,0.035h-1.611c-0.031-0.453-0.176-0.812-0.434-1.075
			s-0.635-0.396-1.131-0.396c-0.523,0-0.945,0.202-1.266,0.606s-0.48,0.924-0.48,1.56v1.791c0,0.648,0.166,1.174,0.498,1.578
			c0.332,0.403,0.779,0.605,1.342,0.605c0.398,0,0.719-0.041,0.961-0.123c0.242-0.081,0.426-0.183,0.551-0.304v-1.577h-1.512v-1.184
			h3.223V16.314z"/>
	</g>
	<path fill="#293990" d="M11.939,13.835c-1.885-3.522-6.042-5.618-7.782-6.115c4.585,1.11,7.122,3.233,8.442,5.237c0,0,0,0,0,0
		c0.761,1.35,1.352,3.023,1.222,4.923c-0.085,1.241,0.704,1.369,0.898,0.422c0.01-0.05,0.014-0.104,0.023-0.155
		c0.001-0.007,0.002-0.014,0.003-0.021c0.1-0.614,0.083-1.282-0.035-1.967c0.092-1.026,0.408-1.964,0.799-2.778l0,0
		c1.013-1.78,3.056-3.729,6.9-4.929c-1.454,0.519-4.878,2.536-6.289,5.64c6.614,1.924,6.738-5.743,9.233-6.824
		c-8.913-0.958-10.324,2.154-10.004,5.138c-0.444,0.624-0.817,1.367-1.081,2.143c-0.376-1.004-0.922-1.965-1.556-2.745
		c0.147-3.513-1.74-7.043-12.087-5.245C3.625,7.634,4.353,16.588,11.939,13.835z"/>
</g>
</svg>
