<svg width="75" height="50" viewBox="0 0 75 50" fill="none" xmlns="http://www.w3.org/2000/svg">
<g clip-path="url(#clip0)">
<path d="M38.9244 26.5873C32.0532 26.5873 25.1819 26.5873 18.3107 26.5873C17.5103 26.5873 17.3432 26.4047 17.4277 25.6107C17.5764 24.2137 17.5764 24.221 16.1803 24.233C14.9503 24.244 13.7204 24.2532 12.4913 24.2293C11.4523 24.2091 10.9236 23.6318 11.0089 22.6937C11.0594 22.1448 11.321 21.818 11.8929 21.8079C12.6538 21.7942 13.4147 21.7932 14.1765 21.7905C18.3345 21.7749 22.4925 21.7519 26.6496 21.7648C26.9479 21.7657 27.3408 21.9539 27.5253 22.1861C28.2467 23.0939 29.1077 23.5547 30.3019 23.5051C31.7631 23.4445 33.229 23.5042 34.693 23.5115C34.7518 23.5115 34.8105 23.5152 34.8683 23.5097C35.3172 23.4711 35.8119 23.3812 35.7981 22.836C35.7835 22.2329 35.2511 22.299 34.8188 22.3045C33.5502 22.3229 32.2827 22.3458 31.0141 22.3522C30.5699 22.355 30.1458 22.2173 30.1495 21.6932C30.1532 21.1709 30.6121 21.1103 31.0077 21.1122C32.2955 21.1168 33.5824 21.1516 34.8702 21.17C35.0436 21.1728 35.2768 21.2113 35.3787 21.1195C35.5613 20.9543 35.7477 20.7101 35.7724 20.4825C35.7871 20.3457 35.5237 20.1144 35.3383 20.0373C35.1354 19.9538 34.8793 19.9887 34.6462 19.9905C33.4364 19.997 32.2257 20.0227 31.016 20.0098C30.7801 20.007 30.5075 19.9171 30.3193 19.7767C29.9861 19.5279 30.0421 19.1121 30.4166 18.9221C30.6002 18.8294 30.826 18.7762 31.0325 18.7771C32.301 18.7854 33.5686 18.8147 34.8362 18.8358C34.9335 18.8377 35.0317 18.845 35.129 18.8358C35.5274 18.7973 35.8293 18.5981 35.8128 18.1832C35.7954 17.7408 35.4181 17.7142 35.0703 17.7197C33.4511 17.7472 31.832 17.7766 30.2128 17.8032C30.0375 17.806 29.8585 17.8152 29.6869 17.7885C28.7011 17.6343 28.0815 18.1915 27.629 18.9331C27.3454 19.3985 27.014 19.583 26.4945 19.5802C24.0933 19.5674 21.6921 19.5747 19.2919 19.5637C18.6356 19.561 18.463 19.2865 18.7448 18.722C19.0991 18.0125 19.469 17.3112 19.8353 16.6081C20.0427 16.2098 19.8555 15.9702 19.3516 15.9766C17.9867 15.995 16.6209 16.0133 15.2551 16.0198C14.1389 16.0253 13.5983 15.1845 14.1013 14.1813C14.216 13.9536 14.4914 13.7379 14.7383 13.6617C15.0825 13.5543 15.4698 13.5589 15.8388 13.5571C19.8206 13.5369 23.8033 13.5149 27.785 13.5296C28.1045 13.5305 28.4404 13.7783 28.736 13.9646C28.9076 14.073 29.0444 14.2712 29.1435 14.4575C29.6832 15.4681 30.5607 15.5177 31.5566 15.3956C34.4195 15.045 37.2851 14.7173 40.1535 14.4089C41.4211 14.2721 42.7437 13.1248 42.9833 11.8838C43.054 11.5203 42.8649 11.3615 42.5464 11.3459C42.1774 11.3285 41.8057 11.3606 41.4348 11.3606C36.1837 11.356 30.9325 11.3487 25.6813 11.3441C25.2324 11.3441 24.7836 11.3771 24.3366 11.3579C24.2081 11.3524 24.0144 11.2404 23.9804 11.1348C23.9492 11.0384 24.0584 10.8356 24.1631 10.7631C25.6693 9.7222 27.1159 8.56567 28.7167 7.69551C30.9297 6.49401 33.2923 5.61376 35.8514 5.42376C36.4948 5.37603 36.616 5.15757 36.2516 4.59032C35.2511 3.03176 35.9891 0.947253 37.4219 0.285461C39.2356 -0.551646 41.7928 0.513095 41.7396 2.71876C41.7212 3.46133 41.7974 4.19839 41.1934 4.79776C40.9309 5.05844 41.0328 5.32187 41.4257 5.35125C43.2146 5.48342 44.9136 5.97082 46.586 6.59039C49.0092 7.48899 51.2295 8.74373 53.091 10.5345C54.3072 11.7048 55.4812 12.9541 56.4752 14.3134C58.0742 16.4998 59.172 18.946 59.7585 21.6188C60.0522 22.9562 60.3698 24.2761 60.368 25.6557C60.3671 26.468 60.2422 26.5864 59.4207 26.5828C56.3559 26.5708 53.2911 26.5809 50.2272 26.5818C46.4593 26.5827 42.6923 26.5818 38.9244 26.5818C38.9244 26.5846 38.9244 26.5855 38.9244 26.5873Z" fill="white"/>
<path d="M38.9254 27.5741C46.0288 27.5741 53.1314 27.5732 60.2349 27.575C60.7425 27.575 61.2501 27.5833 61.7567 27.6016C62.5562 27.631 63.184 28.1166 63.2933 28.7756C63.4291 29.598 63.0656 30.313 62.2928 30.615C61.9568 30.7463 61.575 30.8215 61.2143 30.8206C59.7906 30.8142 58.3661 30.7812 56.9434 30.7288C56.4468 30.7105 56.2807 30.9225 56.2862 31.3842C56.2944 32.1259 56.265 32.8409 55.8419 33.521C55.1884 34.572 53.4811 35.3605 52.2383 34.941C50.554 34.3728 49.7986 33.4917 49.7784 31.7247C49.7674 30.8096 49.5783 30.7123 48.642 30.7399C46.6539 30.7986 44.664 30.7885 42.674 30.7922C38.6344 30.8004 34.5957 30.8032 30.5561 30.7995C29.8741 30.7986 29.1922 30.7463 28.5093 30.7362C27.9337 30.727 27.7823 30.9042 27.8291 31.4769C27.9861 33.3806 27.0379 34.5748 24.9901 35.053C23.7097 35.3522 22.1015 34.4151 21.5554 32.9933C21.3792 32.5334 21.3066 32.0194 21.2681 31.5237C21.2185 30.8904 21.0487 30.7041 20.4007 30.7215C19.0358 30.7573 17.6718 30.8023 16.3069 30.8087C14.8264 30.8151 14.0792 29.7091 14.6052 28.3671C14.8723 27.6861 15.4359 27.598 16.0362 27.5879C17.4213 27.564 18.8063 27.5548 20.1923 27.5539C26.4367 27.5502 32.681 27.5521 38.9254 27.5521C38.9254 27.5594 38.9254 27.5667 38.9254 27.5741Z" fill="white"/>
<path d="M20.9463 45.4084H18.251V47.1027H21.4346V48.4211H16.5371V41.3117H21.4443V42.6349H18.251V44.1339H20.9463V45.4084ZM19.3496 39.4074H21.0879L19.7305 40.9406H18.3877L19.3496 39.4074ZM28.3115 42.6349H26.1777V48.4211H24.4639V42.6349H22.3691V41.3117H28.3115V42.6349ZM35.1982 42.6349H33.0645V48.4211H31.3506V42.6349H29.2559V41.3117H35.1982V42.6349ZM40.835 45.4084H38.1396V47.1027H41.3232V48.4211H36.4258V41.3117H41.333V42.6349H38.1396V44.1339H40.835V45.4084ZM45.1631 45.9113H44.2354V48.4211H42.5215V41.3117H45.3193C46.1624 41.3117 46.8216 41.4989 47.2969 41.8732C47.7721 42.2475 48.0098 42.7765 48.0098 43.4601C48.0098 43.9549 47.9089 44.3651 47.707 44.6906C47.5085 45.0161 47.196 45.2798 46.7695 45.4816L48.2539 48.3478V48.4211H46.418L45.1631 45.9113ZM44.2354 44.588H45.3193C45.6449 44.588 45.889 44.5034 46.0518 44.3341C46.2178 44.1616 46.3008 43.9224 46.3008 43.6164C46.3008 43.3104 46.2178 43.0711 46.0518 42.8986C45.8857 42.7228 45.6416 42.6349 45.3193 42.6349H44.2354V44.588ZM53.9541 45.4084H51.2588V47.1027H54.4424V48.4211H49.5449V41.3117H54.4521V42.6349H51.2588V44.1339H53.9541V45.4084ZM57.8916 41.3117L59.4785 46.258L61.0605 41.3117H63.3164V48.4211H61.5977V46.7609L61.7637 43.3625L60.0449 48.4211H58.9121L57.1885 43.3576L57.3545 46.7609V48.4211H55.6406V41.3117H57.8916Z" fill="white"/>
</g>
<defs>
<clipPath id="clip0">
<rect width="75" height="50" fill="white"/>
</clipPath>
</defs>
</svg>
