<?xml version="1.0" encoding="utf-8"?>
<!-- Generator: Adobe Illustrator 17.0.0, SVG Export Plug-In . SVG Version: 6.00 Build 0)  -->
<!DOCTYPE svg PUBLIC "-//W3C//DTD SVG 1.1//EN" "http://www.w3.org/Graphics/SVG/1.1/DTD/svg11.dtd">
<svg version="1.1" id="Layer_1" xmlns="http://www.w3.org/2000/svg" xmlns:xlink="http://www.w3.org/1999/xlink" x="0px" y="0px"
	 width="75px" height="50px" viewBox="0 0 75 50" enable-background="new 0 0 75 50" xml:space="preserve">
<g>
	<path fill="#FFFFFF" d="M39.422,28.966c-7.486,0-14.972,0-22.458,0c-0.872,0-1.054-0.199-0.962-1.064
		c0.162-1.522,0.162-1.514-1.359-1.501c-1.34,0.012-2.68,0.022-4.019-0.004c-1.132-0.022-1.708-0.651-1.615-1.673
		c0.055-0.598,0.34-0.954,0.963-0.965c0.829-0.015,1.658-0.016,2.488-0.019c4.53-0.017,9.06-0.042,13.589-0.028
		c0.325,0.001,0.753,0.206,0.954,0.459c0.786,0.989,1.724,1.491,3.025,1.437c1.592-0.066,3.189-0.001,4.784,0.007
		c0.064,0,0.128,0.004,0.191-0.002c0.489-0.042,1.028-0.14,1.013-0.734C36,24.222,35.42,24.294,34.949,24.3
		c-1.382,0.02-2.763,0.045-4.145,0.052c-0.484,0.003-0.946-0.147-0.942-0.718c0.004-0.569,0.504-0.635,0.935-0.633
		c1.403,0.005,2.805,0.043,4.208,0.063c0.189,0.003,0.443,0.045,0.554-0.055c0.199-0.18,0.402-0.446,0.429-0.694
		c0.016-0.149-0.271-0.401-0.473-0.485c-0.221-0.091-0.5-0.053-0.754-0.051c-1.318,0.007-2.637,0.035-3.955,0.021
		c-0.257-0.003-0.554-0.101-0.759-0.254c-0.363-0.271-0.302-0.724,0.106-0.931c0.2-0.101,0.446-0.159,0.671-0.158
		c1.382,0.009,2.763,0.041,4.144,0.064c0.106,0.002,0.213,0.01,0.319,0c0.434-0.042,0.763-0.259,0.745-0.711
		c-0.019-0.482-0.43-0.511-0.809-0.505c-1.764,0.03-3.528,0.062-5.292,0.091c-0.191,0.003-0.386,0.013-0.573-0.016
		c-1.074-0.168-1.749,0.439-2.242,1.247c-0.309,0.507-0.67,0.708-1.236,0.705c-2.616-0.014-5.232-0.006-7.847-0.018
		c-0.715-0.003-0.903-0.302-0.596-0.917c0.386-0.773,0.789-1.537,1.188-2.303c0.226-0.434,0.022-0.695-0.527-0.688
		c-1.487,0.02-2.975,0.04-4.463,0.047c-1.216,0.006-1.805-0.91-1.257-2.003c0.125-0.248,0.425-0.483,0.694-0.566
		c0.375-0.117,0.797-0.112,1.199-0.114c4.338-0.022,8.677-0.046,13.015-0.03c0.348,0.001,0.714,0.271,1.036,0.474
		c0.187,0.118,0.336,0.334,0.444,0.537c0.588,1.101,1.544,1.155,2.629,1.022c3.119-0.382,6.241-0.739,9.366-1.075
		c1.381-0.149,2.822-1.399,3.083-2.751c0.077-0.396-0.129-0.569-0.476-0.586c-0.402-0.019-0.807,0.016-1.211,0.016
		c-5.721-0.005-11.442-0.013-17.163-0.018c-0.489,0-0.978,0.036-1.465,0.015c-0.14-0.006-0.351-0.128-0.388-0.243
		c-0.034-0.105,0.085-0.326,0.199-0.405c1.641-1.134,3.217-2.394,4.961-3.342c2.411-1.309,4.985-2.268,7.773-2.475
		c0.701-0.052,0.833-0.29,0.436-0.908c-1.09-1.698-0.286-3.969,1.275-4.69c1.976-0.912,4.762,0.248,4.704,2.651
		c-0.02,0.809,0.063,1.612-0.595,2.265c-0.286,0.284-0.175,0.571,0.253,0.603c1.949,0.144,3.8,0.675,5.622,1.35
		c2.64,0.979,5.059,2.346,7.087,4.297c1.325,1.275,2.604,2.636,3.687,4.117c1.742,2.382,2.938,5.047,3.577,7.959
		c0.32,1.457,0.666,2.895,0.664,4.398c-0.001,0.885-0.137,1.014-1.032,1.01c-3.339-0.013-6.678-0.002-10.016-0.001
		c-4.105,0.001-8.209,0-12.314,0C39.422,28.963,39.422,28.964,39.422,28.966z"/>
	<path fill="#FFFFFF" d="M39.423,30.041c7.739,0,15.477-0.001,23.216,0.001c0.553,0,1.106,0.009,1.658,0.029
		c0.871,0.032,1.555,0.561,1.674,1.279c0.148,0.896-0.248,1.675-1.09,2.004c-0.366,0.143-0.782,0.225-1.175,0.224
		c-1.551-0.007-3.103-0.043-4.653-0.1c-0.541-0.02-0.722,0.211-0.716,0.714c0.009,0.808-0.023,1.587-0.484,2.328
		c-0.712,1.145-2.572,2.004-3.926,1.547c-1.835-0.619-2.658-1.579-2.68-3.504c-0.012-0.997-0.218-1.103-1.238-1.073
		c-2.166,0.064-4.334,0.053-6.502,0.057c-4.401,0.009-8.801,0.012-13.202,0.008c-0.743-0.001-1.486-0.058-2.23-0.069
		c-0.627-0.01-0.792,0.183-0.741,0.807c0.171,2.074-0.862,3.375-3.093,3.896c-1.395,0.326-3.147-0.695-3.742-2.244
		c-0.192-0.501-0.271-1.061-0.313-1.601c-0.054-0.69-0.239-0.893-0.945-0.874c-1.487,0.039-2.973,0.088-4.46,0.095
		c-1.613,0.007-2.427-1.198-1.854-2.66c0.291-0.742,0.905-0.838,1.559-0.849c1.509-0.026,3.018-0.036,4.528-0.037
		c6.803-0.004,13.606-0.002,20.409-0.002C39.423,30.025,39.423,30.033,39.423,30.041z"/>
</g>
<g>
	<path fill="#FFFFFF" d="M9.11,49.92l-1.571-2.843H6.292v2.843H4.588v-8h3.742c1.667,0,2.698,1.092,2.698,2.579
		c0,1.403-0.899,2.171-1.763,2.375l1.811,3.046H9.11z M9.278,44.487c0-0.66-0.516-1.067-1.188-1.067H6.292v2.158H8.09
		C8.762,45.578,9.278,45.171,9.278,44.487z"/>
	<path fill="#FFFFFF" d="M12.304,49.92v-8h5.661v1.5h-3.958v1.679h3.874v1.499h-3.874v1.823h3.958v1.499H12.304z"/>
	<path fill="#FFFFFF" d="M24.829,49.92l-0.503-1.355h-3.43l-0.504,1.355h-1.931l3.082-8h2.135l3.083,8H24.829z M22.61,43.623
		l-1.247,3.442h2.495L22.61,43.623z"/>
	<path fill="#FFFFFF" d="M26.716,45.926c0-2.471,1.859-4.138,4.27-4.138c1.751,0,2.771,0.948,3.334,1.955l-1.463,0.72
		c-0.336-0.647-1.055-1.163-1.871-1.163c-1.463,0-2.519,1.115-2.519,2.626c0,1.512,1.056,2.627,2.519,2.627
		c0.816,0,1.535-0.516,1.871-1.163l1.463,0.707c-0.564,0.996-1.583,1.967-3.334,1.967C28.575,50.063,26.716,48.385,26.716,45.926z"
		/>
	<path fill="#FFFFFF" d="M37.191,49.92v-6.5h-2.339v-1.5h6.381v1.5h-2.327v6.5H37.191z"/>
	<path fill="#FFFFFF" d="M45.412,49.92v-8h5.66v1.5h-3.957v1.679h3.873v1.499h-3.873v1.823h3.957v1.499H45.412z"/>
	<path fill="#FFFFFF" d="M57.937,49.92l-0.504-1.355h-3.43l-0.504,1.355h-1.931l3.082-8h2.135l3.082,8H57.937z M55.718,43.623
		l-1.247,3.442h2.494L55.718,43.623z"/>
	<path fill="#FFFFFF" d="M61.695,49.92v-6.5h-2.339v-1.5h6.381v1.5H63.41v6.5H61.695z"/>
	<path fill="#FFFFFF" d="M66.196,48.793l0.936-1.332c0.563,0.588,1.438,1.092,2.542,1.092c0.947,0,1.392-0.42,1.392-0.888
		c0-1.392-4.605-0.42-4.605-3.43c0-1.332,1.151-2.435,3.034-2.435c1.271,0,2.327,0.384,3.118,1.115l-0.947,1.271
		c-0.647-0.6-1.512-0.876-2.327-0.876c-0.72,0-1.127,0.312-1.127,0.792c0,1.259,4.594,0.407,4.594,3.394
		c0,1.464-1.056,2.566-3.203,2.566C68.055,50.063,66.951,49.548,66.196,48.793z"/>
</g>
</svg>
